HIERARCHY 
ROOT hip 
{ 
  OFFSET 0 0 0
  CHANNELS 6 Xposition Yposition Zposition Zrotation Yrotation Xrotation 
  JOINT abdomen 
  { 
    OFFSET 0 0.517203 -0.018288
    CHANNELS 3 Zrotation Xrotation Yrotation 
    JOINT chest 
    { 
      OFFSET 0 0.292608 -0.012192
      CHANNELS 3 Zrotation Xrotation Yrotation 
      JOINT neck 
      { 
        OFFSET 0 0.554735 -0.054864
        CHANNELS 3 Zrotation Xrotation Yrotation 
        JOINT head 
        { 
          OFFSET -0.006096 0.176783 0.03048
          CHANNELS 3 Zrotation Xrotation Yrotation 
          JOINT leftEye 
          { 
            OFFSET 0.103632 0.201168 0.201168
            CHANNELS 3 Zrotation Xrotation Yrotation 
            End Site 
            { 
              OFFSET 0.025 0 0
            } 
          } 
          JOINT rightEye 
          { 
            OFFSET -0.09144 0.201168 0.201168
            CHANNELS 3 Zrotation Xrotation Yrotation 
            End Site 
            { 
              OFFSET 0.025 0 0
            } 
          } 
        } 
      } 
      JOINT rCollar 
      { 
        OFFSET -0.067056 0.481585 -0.12192
        CHANNELS 3 Zrotation Xrotation Yrotation 
        JOINT rShldr 
        { 
          OFFSET -0.219456 -0.0487682 0.036576
          CHANNELS 3 Zrotation Xrotation Yrotation 
          JOINT rForeArm 
          { 
            OFFSET -0.704355 -0.0427875 0.012192
            CHANNELS 3 Zrotation Xrotation Yrotation 
            JOINT rHand 
            { 
              OFFSET -0.564698 0.0193302 0.176784
              CHANNELS 3 Zrotation Xrotation Yrotation 
              JOINT rThumb1 
              { 
                OFFSET -0.03048 -0.0121979 0.085344
                CHANNELS 3 Zrotation Xrotation Yrotation 
                JOINT rThumb2 
                { 
                  OFFSET -0.0842588 -0.0131122 0.085344
                  CHANNELS 3 Zrotation Xrotation Yrotation 
                  End Site 
                  { 
                    OFFSET -0.0445677 -0.0295535 0.0357623
                  } 
                } 
              } 
              JOINT rIndex1 
              { 
                OFFSET -0.193987 0.0234573 0.140208
                CHANNELS 3 Zrotation Xrotation Yrotation 
                JOINT rIndex2 
                { 
                  OFFSET -0.0635143 -0.0221043 0.0391345
                  CHANNELS 3 Zrotation Xrotation Yrotation 
                  End Site 
                  { 
                    OFFSET -0.0406298 -0.00587005 0.0291255
                  } 
                } 
              } 
              JOINT rMid1 
              { 
                OFFSET -0.206179 0.0295532 0.085344
                CHANNELS 3 Zrotation Xrotation Yrotation 
                JOINT rMid2 
                { 
                  OFFSET -0.0775413 -0.0147526 0.0266175
                  CHANNELS 3 Zrotation Xrotation Yrotation 
                  End Site 
                  { 
                    OFFSET -0.0621368 -0.00822258 0.0209355
                  } 
                } 
              } 
              JOINT rRing1 
              { 
                OFFSET -0.220706 0.0136669 0.0379195
                CHANNELS 3 Zrotation Xrotation Yrotation 
                JOINT rRing2 
                { 
                  OFFSET -0.0652335 -0.0204945 -0.00049622
                  CHANNELS 3 Zrotation Xrotation Yrotation 
                  End Site 
                  { 
                    OFFSET -0.0584605 -0.0073513 0.0042032
                  } 
                } 
              } 
              JOINT rPinky1 
              { 
                OFFSET -0.206801 -0.00119476 -0.01146
                CHANNELS 3 Zrotation Xrotation Yrotation 
                JOINT rPinky2 
                { 
                  OFFSET -0.0456835 -0.0161846 -0.0175246
                  CHANNELS 3 Zrotation Xrotation Yrotation 
                  End Site 
                  { 
                    OFFSET -0.0423063 -0.0129417 -0.0151793
                  } 
                } 
              } 
            } 
          } 
        } 
      } 
      JOINT lCollar 
      { 
        OFFSET 0.067056 0.481585 -0.12192
        CHANNELS 3 Zrotation Xrotation Yrotation 
        JOINT lShldr 
        { 
          OFFSET 0.219456 -0.0487682 0.036576
          CHANNELS 3 Zrotation Xrotation Yrotation 
          JOINT lForeArm 
          { 
            OFFSET 0.704355 -0.0427875 0.012192
            CHANNELS 3 Zrotation Xrotation Yrotation 
            JOINT lHand 
            { 
              OFFSET 0.564698 0.0193302 0.176784
              CHANNELS 3 Zrotation Xrotation Yrotation 
              JOINT lThumb1 
              { 
                OFFSET 0.03048 -0.0121979 0.085344
                CHANNELS 3 Zrotation Xrotation Yrotation 
                JOINT lThumb2 
                { 
                  OFFSET 0.0842588 -0.0131122 0.085344
                  CHANNELS 3 Zrotation Xrotation Yrotation 
                  End Site 
                  { 
                    OFFSET 0.0445677 -0.0295535 0.0357623
                  } 
                } 
              } 
              JOINT lIndex1 
              { 
                OFFSET 0.193987 0.0234573 0.140208
                CHANNELS 3 Zrotation Xrotation Yrotation 
                JOINT lIndex2 
                { 
                  OFFSET 0.0635143 -0.0221043 0.0391345
                  CHANNELS 3 Zrotation Xrotation Yrotation 
                  End Site 
                  { 
                    OFFSET 0.0406298 -0.00587005 0.0291255
                  } 
                } 
              } 
              JOINT lMid1 
              { 
                OFFSET 0.206179 0.0295532 0.085344
                CHANNELS 3 Zrotation Xrotation Yrotation 
                JOINT lMid2 
                { 
                  OFFSET 0.0775413 -0.0147526 0.0266175
                  CHANNELS 3 Zrotation Xrotation Yrotation 
                  End Site 
                  { 
                    OFFSET 0.0621368 -0.00822258 0.0209355
                  } 
                } 
              } 
              JOINT lRing1 
              { 
                OFFSET 0.220706 0.0136669 0.0379195
                CHANNELS 3 Zrotation Xrotation Yrotation 
                JOINT lRing2 
                { 
                  OFFSET 0.0652335 -0.0204945 -0.00049622
                  CHANNELS 3 Zrotation Xrotation Yrotation 
                  End Site 
                  { 
                    OFFSET 0.0584605 -0.0073513 0.0042032
                  } 
                } 
              } 
              JOINT lPinky1 
              { 
                OFFSET 0.206801 -0.00119476 -0.01146
                CHANNELS 3 Zrotation Xrotation Yrotation 
                JOINT lPinky2 
                { 
                  OFFSET 0.0456835 -0.0161846 -0.0175246
                  CHANNELS 3 Zrotation Xrotation Yrotation 
                  End Site 
                  { 
                    OFFSET 0.0423063 -0.0129417 -0.0151793
                  } 
                } 
              } 
            } 
          } 
        } 
      } 
    } 
  } 
  JOINT rButtock 
  { 
    OFFSET -0.219456 0.108771 0.03048
    CHANNELS 3 Zrotation Xrotation Yrotation 
    JOINT rThigh 
    { 
      OFFSET 0 -0.0426718 -0.054864
      CHANNELS 3 Zrotation Xrotation Yrotation 
      JOINT rShin 
      { 
        OFFSET 0 -0.920498 0.018288
        CHANNELS 3 Zrotation Xrotation Yrotation 
        JOINT rFoot 
        { 
          OFFSET 0.018288 -1.12776 -0.128016
          CHANNELS 3 Zrotation Xrotation Yrotation 
          End Site 
          { 
            OFFSET -0.0280525 -0.092491 0.302575
          } 
        } 
      } 
    } 
  } 
  JOINT lButtock 
  { 
    OFFSET 0.219456 0.108771 0.03048
    CHANNELS 3 Zrotation Xrotation Yrotation 
    JOINT lThigh 
    { 
      OFFSET 0 -0.0426718 -0.054864
      CHANNELS 3 Zrotation Xrotation Yrotation 
      JOINT lShin 
      { 
        OFFSET 0 -0.920498 0.018288
        CHANNELS 3 Zrotation Xrotation Yrotation 
        JOINT lFoot 
        { 
          OFFSET -0.018288 -1.12776 -0.128016
          CHANNELS 3 Zrotation Xrotation Yrotation 
          End Site 
          { 
            OFFSET 0.0280525 -0.092491 0.302575
          } 
        } 
      } 
    } 
  } 
} 
MOTION 
Frames:	6 
Frame Time:	0.00833333 
0 2.00782 0 360.617 -45.262 -347.634 -0.468491 -0.0416813 11.367 4.56225 -4.0265 3.31207 4.28969 14.7233 18.7416 -19.9875 -19.6257 33.324 -0 0 0 -0 0 0 1.01081e-13 6.23388e-13 7.03101e-13 59.4225 45.3183 -24.0793 -28.1023 -31.261 69.2657 -0.0146197 -3.44995 -0.485452 -3.12712e-10 2.29146e-09 -2.52131e-09 -5.41784e-10 3.96353e-09 -4.35393e-09 -3.12718e-10 2.29148e-09 -2.52133e-09 7.73091 5.47488 0.417314 -3.12716e-10 2.29147e-09 -2.52132e-09 2.90554 0.965183 0.102902 -3.12706e-10 2.29147e-09 -2.52132e-09 10.2786 0.731801 0.0259123 -3.12713e-10 2.29147e-09 -2.52131e-09 2.22167 -0.733487 -0.20892 1.00891e-13 6.23388e-13 7.02853e-13 -7.36256 39.8491 -41.0371 28.1951 -39.2204 -82.5359 0.101991 9.07089 -1.2857 2.57267e-09 -1.60163e-09 -1.79165e-09 4.42457e-09 -2.75301e-09 -3.10955e-09 2.57267e-09 -1.60163e-09 -1.79164e-09 -7.73091 5.47488 -0.417314 2.57268e-09 -1.60163e-09 -1.79166e-09 -2.90554 0.965183 -0.102902 2.57267e-09 -1.60163e-09 -1.79165e-09 -10.2786 0.731801 -0.0259123 2.57268e-09 -1.60163e-09 -1.79166e-09 -2.22167 -0.733487 0.20892 -2.03217e-16 0 -3.88251e-19 2.81922 -19.2148 -13.0063 -0.0486757 35.6652 1.45453 -12.1591 -13.4629 -34.1655 2.03217e-16 0 3.88251e-19 -6.50024 -44.8026 -35.0106 0.22667 32.4537 -0.643067 -2.53141 -6.31775 -14.7111 
-0.00287 2.00663 -0.004645 360.423 -45.4421 -347.427 -0.554947 0.0771633 11.4386 4.56832 -4.07512 3.33306 4.18595 14.8997 18.7017 -19.6532 -19.9051 33.2574 -0 0 0 -0 0 0 1.65788e-13 4.93455e-13 4.72832e-13 59.9997 45.1552 -24.7587 -28.1076 -31.2976 69.3247 -0.015936 -3.6198 -0.509403 -2.41557e-10 1.88812e-09 -2.27146e-09 -4.15803e-10 3.26401e-09 -3.92288e-09 -2.41566e-10 1.88814e-09 -2.27147e-09 7.73091 5.47488 0.417314 -2.41561e-10 1.88813e-09 -2.27146e-09 2.90554 0.965183 0.102902 -2.41553e-10 1.88813e-09 -2.27146e-09 10.2786 0.731801 0.0259123 -2.4156e-10 1.88813e-09 -2.27145e-09 2.22167 -0.733487 -0.20892 1.65609e-13 4.9346e-13 4.72577e-13 -7.19678 39.7532 -40.6571 28.1704 -39.3902 -82.839 0.0997955 8.97438 -1.27179 1.19023e-09 -1.02168e-09 -1.0693e-09 2.04486e-09 -1.75915e-09 -1.85408e-09 1.19023e-09 -1.02168e-09 -1.0693e-09 -7.73091 5.47488 -0.417314 1.19024e-09 -1.02168e-09 -1.06931e-09 -2.90554 0.965183 -0.102902 1.19023e-09 -1.02168e-09 -1.0693e-09 -10.2786 0.731801 -0.0259123 1.19024e-09 -1.02168e-09 -1.06931e-09 -2.22167 -0.733487 0.20892 -2.03217e-16 0 -3.88251e-19 3.02099 -19.2957 -13.0714 -0.0475728 35.6594 1.45708 -12.1624 -13.5486 -34.0767 2.03217e-16 0 3.88251e-19 -6.37823 -44.9836 -35.1653 0.23002 32.7426 -0.650926 -2.43283 -6.24217 -14.3419 
-0.00448 2.00537 -0.010191 360.245 -45.485 -347.001 -0.648108 0.180641 11.5138 4.52034 -4.15048 3.35439 4.1096 15.1697 18.6408 -19.2836 -20.2371 33.1468 -0 0 0 -0 0 0 2.29015e-13 2.04047e-13 3.86854e-14 60.7154 45.0379 -25.5109 -28.1126 -31.3321 69.3803 -0.0184277 -3.89854 -0.548742 -4.74553e-11 8.1565e-10 -1.61897e-09 -7.56316e-11 1.4058e-09 -2.79703e-09 -4.74676e-11 8.15666e-10 -1.61899e-09 7.73091 5.47488 0.417314 -4.74582e-11 8.15657e-10 -1.61897e-09 2.90554 0.965183 0.102902 -4.74534e-11 8.15657e-10 -1.61897e-09 10.2786 0.731801 0.0259123 -4.746e-11 8.15657e-10 -1.61896e-09 2.22167 -0.733487 -0.20892 2.2887e-13 2.04057e-13 3.84307e-14 -6.89435 39.6836 -40.3202 28.1467 -39.5473 -83.1192 0.097115 8.85368 -1.2544 -1.01777e-09 1.31024e-10 2.24787e-10 -1.75472e-09 2.19857e-10 3.93213e-10 -1.01777e-09 1.31026e-10 2.24797e-10 -7.73091 5.47488 -0.417314 -1.01777e-09 1.31024e-10 2.2478e-10 -2.90554 0.965183 -0.102902 -1.01778e-09 1.31024e-10 2.24786e-10 -10.2786 0.731801 -0.0259123 -1.01777e-09 1.31024e-10 2.24775e-10 -2.22167 -0.733487 0.20892 -2.03217e-16 0 -3.88251e-19 3.25162 -19.3576 -13.1058 -0.0461059 35.6412 1.45973 -12.1786 -13.6488 -34.0031 2.03217e-16 0 3.88251e-19 -6.23522 -45.1711 -35.2711 0.233795 33.0607 -0.660025 -2.33017 -6.10076 -14.0208 
-0.00638 2.00465 -0.014365 360.057 -45.6711 -346.905 -0.724816 0.290676 11.582 4.4656 -4.22937 3.37341 4.06935 15.4428 18.572 -18.969 -20.5662 33.0125 -0 0 0 -0 0 0 2.69304e-13 -9.81335e-14 -3.81346e-13 61.4249 44.9296 -26.2477 -28.1155 -31.3523 69.4128 -0.0212033 -4.16709 -0.586682 1.62328e-10 -3.66451e-10 -8.74472e-10 2.91119e-10 -6.41859e-10 -1.51217e-09 1.62312e-10 -3.66438e-10 -8.74496e-10 7.73091 5.47488 0.417314 1.62325e-10 -3.66445e-10 -8.74478e-10 2.90554 0.965183 0.102902 1.62327e-10 -3.66446e-10 -8.7447e-10 10.2786 0.731801 0.0259123 1.6232e-10 -3.66444e-10 -8.7446e-10 2.22167 -0.733487 -0.20892 2.69199e-13 -9.81171e-14 -3.81597e-13 -6.5947 39.6079 -39.9534 28.1219 -39.7086 -83.4049 0.0940865 8.71521 -1.23447 -3.06819e-09 1.25655e-09 1.45418e-09 -5.28286e-09 2.15289e-09 2.52782e-09 -3.06819e-09 1.25655e-09 1.45419e-09 -7.73091 5.47488 -0.417314 -3.06819e-09 1.25655e-09 1.45418e-09 -2.90554 0.965183 -0.102902 -3.0682e-09 1.25655e-09 1.45418e-09 -10.2786 0.731801 -0.0259123 -3.06819e-09 1.25655e-09 1.45417e-09 -2.22167 -0.733487 0.20892 -2.03217e-16 0 -3.88251e-19 3.4971 -19.4244 -13.1369 -0.0445336 35.6324 1.46326 -12.1895 -13.7425 -33.9312 2.03217e-16 0 3.88251e-19 -6.10551 -45.4161 -35.3351 0.238939 33.4837 -0.671489 -2.22425 -5.90608 -13.7299 
-0.01122 2.0045 -0.018788 359.904 -45.7155 -346.921 -0.761931 0.429191 11.6323 4.45132 -4.28858 3.38745 4.07325 15.6285 18.5075 -18.7987 -20.8361 32.8743 -0 0 0 -0 0 0 2.65199e-13 -2.66381e-13 -5.6927e-13 61.9816 44.7966 -26.8801 -28.1147 -31.3463 69.4026 -0.0227989 -4.3064 -0.606378 2.80524e-10 -1.09867e-09 -3.48595e-10 4.96839e-10 -1.9097e-09 -6.0407e-10 2.80508e-10 -1.09866e-09 -3.48621e-10 7.73091 5.47488 0.417314 2.80522e-10 -1.09867e-09 -3.48602e-10 2.90554 0.965183 0.102902 2.80522e-10 -1.09867e-09 -3.48593e-10 10.2786 0.731801 0.0259123 2.80516e-10 -1.09866e-09 -3.48582e-10 2.22167 -0.733487 -0.20892 2.65126e-13 -2.66362e-13 -5.69518e-13 -6.43543 39.4916 -39.4848 28.0933 -39.8906 -83.7259 0.0908353 8.56538 -1.21292 -3.97789e-09 1.75498e-09 1.98244e-09 -6.84827e-09 3.00883e-09 3.44524e-09 -3.97789e-09 1.75498e-09 1.98245e-09 -7.73091 5.47488 -0.417314 -3.97789e-09 1.75498e-09 1.98243e-09 -2.90554 0.965183 -0.102902 -3.9779e-09 1.75498e-09 1.98243e-09 -10.2786 0.731801 -0.0259123 -3.97789e-09 1.75498e-09 1.98242e-09 -2.22167 -0.733487 0.20892 -2.03217e-16 0 -3.88251e-19 3.74323 -19.5201 -13.1923 -0.043121 35.6549 1.46849 -12.177 -13.8088 -33.8474 2.03217e-16 0 3.88251e-19 -6.02377 -45.7695 -35.3652 0.246532 34.0873 -0.686552 -2.11566 -5.67067 -13.4511 
-0.01337 2.00234 -0.023717 359.583 -45.8845 -346.592 -0.744107 0.6164 11.6592 4.50603 -4.31456 3.39544 4.1699 15.6948 18.4477 -18.9047 -21.0163 32.7153 -0 0 0 -0 0 0 1.85749e-13 -2.22852e-13 -3.89223e-13 62.3289 44.6249 -27.3848 -28.1101 -31.3154 69.3544 -0.0221545 -4.24702 -0.597984 2.29223e-10 -1.13329e-09 -1.03182e-11 4.04736e-10 -1.96793e-09 -1.84588e-11 2.29211e-10 -1.13329e-09 -1.03406e-11 7.73091 5.47488 0.417314 2.29222e-10 -1.13329e-09 -1.03226e-11 2.90554 0.965183 0.102902 2.29223e-10 -1.13329e-09 -1.03152e-11 10.2786 0.731801 0.0259123 2.29216e-10 -1.13329e-09 -1.03053e-11 2.22167 -0.733487 -0.20892 1.85698e-13 -2.22836e-13 -3.89472e-13 -6.48882 39.3161 -38.86 28.0583 -40.0998 -84.0976 0.0876961 8.41586 -1.19144 -3.12512e-09 1.21641e-09 1.41882e-09 -5.38142e-09 2.08298e-09 2.46751e-09 -3.12513e-09 1.21641e-09 1.41884e-09 -7.73091 5.47488 -0.417314 -3.12512e-09 1.21641e-09 1.41882e-09 -2.90554 0.965183 -0.102902 -3.12513e-09 1.21641e-09 1.41882e-09 -10.2786 0.731801 -0.0259123 -3.12512e-09 1.21641e-09 1.41881e-09 -2.22167 -0.733487 0.20892 -2.03217e-16 0 -3.88251e-19 3.98729 -19.6507 -13.2702 -0.0420549 35.7126 1.47485 -12.119 -13.82 -33.7402 2.03217e-16 0 3.88251e-19 -5.96129 -46.2355 -35.3136 0.257372 34.8899 -0.705546 -2.01438 -5.45323 -13.1635 
